<svg width="512" height="512" viewBox="0 0 512 512" fill="none" xmlns="http://www.w3.org/2000/svg">
  <g transform="scale(1.5192878)">
    <path d="m 123.529,168.127 25.052,22.044 60.645,-58.41 13.828,12.302 -75.027,74.067 -38.147,-37.279 z" fill="#9d7bf7"/>
    <path d="m 259.939,195.793 c 14.169,-14.132 25.524,-26.558 25.524,-26.558 l -51.874,-55.567 c -3.572,-8.467 6.398,-17.7972 14.594,-13.618 l 59.008,59.816 c 5.955,6.517 5.955,12.473 -0.006,18.55 0,0 -41.942,41.009 -59.432,58.409 -8.691,4.759 -17.998,-6.037 -14.395,-12.738 0.604,-1.944 7.349,-9.129 26.581,-28.294 z" fill="#4514e0"/>
    <path d="M 76.7169,195.774 C 62.5479,181.642 51.1933,169.215 51.1933,169.215 l 51.8737,-55.566 c 3.572,-8.467 -6.3982,-17.7974 -14.5934,-13.618 l -59.0081,59.815 c -5.955,6.518 -5.955,12.474 0.0058,18.551 0,0 41.9424,41.008 59.4322,58.409 8.691,4.759 17.9975,-6.038 14.3945,-12.739 -0.603,-1.943 -7.349,-9.128 -26.5811,-28.293 z" fill="#4514e0"/>
  </g>
</svg>
