<svg width="1229" height="294" viewBox="0 0 1229 294" fill="none" xmlns="http://www.w3.org/2000/svg">
  <g id="icon">
    <path d="M 199.332,140.843 232.978,170.449 314.429,92 333,108.522 232.234,208 181,157.932 Z" fill="#9d7bf7"/>
    <path d="m 382.54,178 c 19.03,-18.98 34.28,-35.67 34.28,-35.67 L 347.15,67.7 c -4.797,-11.3717 8.593,-23.9027 19.6,-18.29 l 79.252,80.337 C 454,138.5 454,146.5 445.994,154.662 c 0,0 -56.331,55.077 -79.821,78.447 C 354.5,239.5 342,225 346.84,216 c 0.81,-2.61 9.87,-12.26 35.7,-38 z" fill="#4514e0"/>
    <path d="m 136.46,177.974 c -19.03,-18.98 -34.28,-35.67 -34.28,-35.67 l 69.67,-74.6297 c 4.797,-11.3717 -8.594,-23.9028 -19.6,-18.29 L 72.9976,129.721 c -7.9981,8.753 -7.9981,16.753 0.0077,24.915 0,0 56.3317,55.077 79.8217,78.447 11.673,6.391 24.173,-8.109 19.333,-17.109 -0.81,-2.61 -9.87,-12.26 -35.7,-38 z" fill="#4514e0"/>
  </g>
  <g id="wordmark" fill="#fcfcfc">
    <path d="m 525.08008,66 -0.041,83.5 L 525,233 h 29.41992 l 0.52539,-60.05078 32.44141,0.0937 L 627,233 h 32.5 c 0.898,-0.377 0.60278,-1.94417 -1.07422,-4.32617 -1.278,-1.821 -10.49089,-15.32839 -20.46289,-30.02539 -9.972,-14.697 -18.35672,-27.39819 -18.63672,-28.24219 -0.319,-0.978 0.13005,-1.51805 1.24805,-1.49805 0.958,0.011 4.89137,-1.54575 8.73437,-3.46875 4.691,-2.351 8.80505,-5.45631 12.49805,-9.44531 3.923,-4.234 6.47681,-8.28589 8.88281,-14.08789 2.805,-6.768 3.45475,-9.78055 3.84375,-17.81055 0.259,-5.333 -0.0311,-12.17357 -0.66015,-15.26758 -0.619,-3.07399 -2.41443,-8.34432 -3.98243,-11.70312 -1.56699,-3.3587 -4.82156,-8.571284 -7.22656,-11.583984 -2.406,-3.0127 -7.06537,-7.266444 -10.35937,-9.464844 -3.294,-2.1985 -8.23547,-4.834847 -10.98047,-5.873047 -2.745,-1.028 -6.56738,-2.238181 -8.48438,-2.675781 -1.916,-0.4478 -22.44995,-0.968275 -45.62695,-1.171875 z m 54.81054,27.179688 c 23.13,0.329999 24.90938,0.480625 29.60938,2.640624 2.75,1.260001 6.05961,3.280235 7.34961,4.490238 1.29,1.2 3.42047,3.98945 4.73047,6.18945 1.53,2.55 2.6193,6.35 3.0293,10.5 0.54999,5.54 0.30148,7.29039 -1.72852,11.90039 -1.34,3.04 -4.23086,7.07 -6.63086,9.25 -2.62,2.37 -6.27,4.42938 -9.5,5.35938 -4,1.15 -10.71,1.51023 -51.25,1.49023 l -0.85938,-25.17969 c -0.47,-13.86 -0.52132,-25.599841 -0.11132,-26.089841 0.42,-0.51 11.44132,-0.750782 25.36132,-0.550781 z"/>
    <path d="m 724,109.07031 c -6.17,0.02 -12.12,0.7393 -17,2.0293 -4.12,1.09 -10.17922,3.42945 -13.44922,5.18945 -3.27,1.77 -8.78,6.02094 -12.25,9.46094 -4.58,4.54 -7.38172,8.5 -10.26172,14.5 -2.18,4.54 -4.66,11.51 -5.5,15.5 C 664.68906,159.74 664,166.6 664,171 c 0,4.4 0.67977,11.26 1.50977,15.25 0.83,3.99 3.1807,10.62 5.2207,14.75 2.1,4.25 6.11023,10.03914 9.24023,13.36914 3.04,3.23 8.4593,7.59164 12.0293,9.68164 3.58,2.09 9.88,4.84891 14,6.12891 6.09,1.88 9.76,2.32031 19.5,2.32031 10.01,0 13.24,-0.40945 19.5,-2.43945 4.13,-1.35 9.98,-3.88086 13,-5.63086 3.03,-1.76 7.98,-5.87039 11,-9.15039 3.03,-3.28 6.29,-7.38914 7.25,-9.11914 L 778,203 c -12.01,-5.6 -17.3,-7.87016 -19.5,-8.66016 l -4,-1.42968 c -5.42,6.07 -8.35,8.73961 -10,9.84961 -1.65,1.12 -5.7,2.80976 -9,3.75976 -4.34,1.26 -7.93,1.57969 -13,1.17969 -4.9,-0.39 -8.8,-1.44953 -13,-3.51953 -3.36,-1.66 -7.39016,-4.66032 -9.16016,-6.82031 -1.75,-2.12001 -4.10047,-5.88938 -5.23046,-8.35938 -1.14,-2.48 -2.06985,-5.74 -2.08985,-7.25 L 693,179 l 87.5,-0.5 c -0.22,-15.5 -1.02922,-23.15 -1.94922,-27 -0.92,-3.85 -3.31031,-10.15 -5.32031,-14 -2.13,-4.1 -6.15141,-9.50906 -9.69141,-13.03906 -3.6,-3.6 -8.65906,-7.34149 -12.53906,-9.27149 -3.57,-1.78 -8.97,-3.88922 -12,-4.69922 -3.09,-0.82 -9.66,-1.44992 -15,-1.41992 z m -1,23.00977 c 1.92,-0.07 6.42,0.76008 10,1.83008 4.66,1.4 7.7,3.09953 10.75,6.01953 2.34,2.24 5.37023,6.43031 6.74023,9.32031 1.37,2.89 2.49,6.04 2.5,7 0.01,1.63 -2.08023,1.75 -29.99023,1.75 -23.33,0 -30,-0.28 -30,-1.25 0,-0.69 1.27984,-3.95 2.83984,-7.25 1.56,-3.3 4.48,-7.46 6.5,-9.25 2.01,-1.79 5.01016,-3.93 6.66016,-4.75 1.65,-0.83 4.69,-1.90039 6.75,-2.40039 2.06,-0.49 5.33,-0.94953 7.25,-1.01953 z"/>
    <path d="m 789.1,134.333 c -4.46,-11.125 -8.1,-20.694 -8.1,-21.257 0,-0.635 5.6,-1.035 29.5,-1.076 l 10.31,26.913 c 5.67,14.814 13.09,34.412 16.5,43.56 3.4,9.149 6.42,16.648 6.69,16.668 0.28,0.021 2.62,-5.388 5.2,-12.027 2.59,-6.628 8.72,-22.897 13.62,-36.133 4.9,-13.246 10.1,-27.415 14.18,-38.93 h 30 l -0.63,2.305 c -0.35,1.271 -6.14,16.136 -12.86,33.039 -6.73,16.904 -17.13,43.079 -34.01,85.605 h -31 l -4.31,-10.532 c -2.37,-5.788 -9.41,-23.439 -15.65,-39.216 -6.24,-15.777 -14.99,-37.793 -19.44,-48.919 z"/>
    <path d="m 918.52,195.75 c -1.18,-4.96 -1.49,-14.24 -1.5,-45 L 917,112 h 29.01 l 0.49,78.5 c 12.866,22.183 37.957,21.508 52,1 L 998.81,112 H 1028 l -0.02,37.25 c -0.01,28.96 -0.34,38.81 -1.49,44.25 -10.82,51.441 -95.789,53.983 -107.97,2.25 z"/>
    <path d="m 1104.5,109.38086 c -8.29,-0.22 -13.55,0.12914 -17,1.11914 -2.75,0.78 -8.26,3.02094 -12.25,4.96094 -4.87,2.38 -9.3,5.59812 -13.5,9.82812 -3.54,3.57 -7.8492,9.3 -9.9492,13.25 -2.04,3.83 -4.641,10.56094 -5.791,14.96094 -1.47,5.67 -2.0706,11.05 -2.0606,18.5 0.01,7.57 0.5916,12.59 2.1016,18 1.16,4.12 3.52,10.2 5.25,13.5 1.73,3.3 6.0799,8.96961 9.6699,12.59961 4.67,4.71 8.6693,7.60992 14.0293,10.16992 4.13,1.97 10.99,4.29016 15.25,5.16016 4.26,0.86 10.68,1.57031 14.25,1.57031 3.58,0 9.99,-0.71961 14.25,-1.59961 4.26,-0.88 10.9,-3.20039 14.75,-5.15039 3.85,-1.95 9.6396,-6.07039 12.8496,-9.15039 3.22,-3.08 7.05,-7.52867 8.5,-9.88867 1.46,-2.35 2.4304,-4.46188 2.1504,-4.67188 -0.27,-0.22 -4.32,-2.04836 -9,-4.06836 -4.67,-2.03 -9.85,-4.08054 -11.5,-4.56054 -2.75,-0.81 -3.37,-0.4911 -7.5,3.8789 -2.47,2.62 -6.75,5.85188 -9.5,7.17188 -3.28,1.58 -7.4,2.55961 -12,2.84961 -4.55,0.29 -8.92,-0.0896 -12.5,-1.09961 -3.02,-0.85 -7.52,-3.07141 -10,-4.94141 -2.47,-1.86 -5.7608,-5.16008 -7.3008,-7.33008 -1.54,-2.17 -3.45,-6.52945 -4.25,-9.68945 L 1072,179 l 87.5,-0.5 c -0.24,-16.7 -0.99,-23.66 -2,-27.5 -0.94,-3.58 -2.9505,-8.98 -4.4805,-12 -1.53,-3.03 -4.5392,-7.75 -6.6992,-10.5 -2.15,-2.75 -7.0411,-7.07914 -10.8711,-9.61914 -3.82,-2.54 -9.6492,-5.64039 -12.9492,-6.90039 -4.77,-1.81 -8.47,-2.34961 -18,-2.59961 z m -5.3359,23.11719 c 1.8075,-0.1425 3.8109,-0.14328 5.8359,0.0117 3.58,0.28 8.3,1.3907 10.5,2.4707 2.2,1.08 5.7602,3.66023 7.9102,5.74023 2.15,2.08 4.6789,5.5793 5.6289,7.7793 0.94,2.2 2.0009,5.24 2.9609,9.5 h -29.5 c -27.44,0 -29.5005,-0.12 -29.4805,-1.75 0.01,-0.96 0.8303,-3.55 1.8203,-5.75 0.98,-2.2 3.5607,-5.96914 5.7207,-8.36914 2.17,-2.4 5.2895,-5.06992 6.9395,-5.91992 1.65,-0.85 4.8,-2.1411 7,-2.8711 1.245,-0.415 2.8566,-0.69929 4.6641,-0.84179 z"/>
  </g>
</svg>
